@startuml

class Storage{
    - data: Map<string, Object>
    + {abstract} save(data)
    + {abstract} load(): Object
}

class InputType{
    + get_input_description(): string
}

class OutputType{
    + get_output_description(): string
}

class Generator{
    + {abstract} generate(inputs): string
}

class AIAssistant extends Generator{
    + {abstract} get_response(inputs): string
}



annotation CostAnalyzer{
    + get_response(inputs): string
}


class Node{
    - parents: List<INode>
    - was_executed: bool
    + {async} execute()
}

Node o--> Generator

class Graph{
    - endNodes: INode
}


Graph o-- Node


Node o-- Storage
Node o-- Node

AIAssistant ..> InputType
AIAssistant ..> OutputType

CostAnalyzer ..> AIAssistant
@enduml